<?xml version="1.0" encoding="utf-8"?>
<!-- Generator: Adobe Illustrator 17.1.0, SVG Export Plug-In . SVG Version: 6.00 Build 0)  -->
<!DOCTYPE svg PUBLIC "-//W3C//DTD SVG 1.1//EN" "http://www.w3.org/Graphics/SVG/1.1/DTD/svg11.dtd">
<svg version="1.1" id="Layer_1" xmlns="http://www.w3.org/2000/svg" xmlns:xlink="http://www.w3.org/1999/xlink" x="0px" y="0px"
	 viewBox="0 0 40 50" enable-background="new 0 0 40 50" xml:space="preserve">
<g>
	<g>
		<path fill="#333333" d="M11.9,5.2c0,0.1,0,0.1,0,0.2c-1.6,1.1-3,2.5-4.1,4.1C7.6,9.8,7.4,10,7.2,10.3c-0.4,0.7-0.8,1.4-1.2,2.2
			c-0.7,1.5-1.2,3.2-1.4,4.9c-0.1,0.8-0.2,1.6-0.2,2.4c0,9.8,8,17.7,17.7,17.7S40,29.5,40,19.8c0-1.3-0.1-2.6-0.4-3.8
			c-0.3-1.4-0.8-2.6-1.3-3.9c-0.4-0.8-0.8-1.5-1.3-2.2c-0.5-0.7-1-1.4-1.6-2C32.1,4.3,27.4,2,22.2,2C18.5,2,15,3.2,12.1,5.2
			L11.9,5.2L11.9,5.2z M7.2,19.8c0-1.4,0.2-2.7,0.6-4c1.4,2.1,3.4,3.9,5.7,5.2c0.2,2.6,0.9,5.1,2,7.4C11.6,26.6,8.5,23.6,7.2,19.8
			C7.2,19.8,7.2,19.8,7.2,19.8z M22.1,21.3c-2.4,0-4.6-0.5-6.6-1.4c0-0.2,0-0.3,0-0.5c0-2,0.3-4,0.9-5.8c1.6,1.1,3.6,1.8,5.7,1.8
			c2.2,0,4.3-0.7,6-2c0.6,1.9,1,3.9,1,6c0,0.1,0,0.2,0,0.3C26.9,20.7,24.6,21.3,22.1,21.3z M28.9,21.8c-0.3,2.7-1.3,5.2-2.6,7.3
			c-1.3,0.3-2.8,0.5-4.2,0.5c-1.3,0-2.6-0.1-3.8-0.4c-1.4-2.1-2.3-4.6-2.7-7.3c2,0.8,4.2,1.2,6.5,1.2C24.5,23.1,26.8,22.6,28.9,21.8
			z M20.3,34.7c-5.5-0.7-10.1-4.4-12.1-9.5c2.2,2.6,5.2,4.6,8.7,5.6c0.9,1.4,2,2.6,3.3,3.6c0.1,0.1,0.3,0.1,0.4,0.1
			C20.5,34.6,20.4,34.6,20.3,34.7z M22.2,33.5c-0.8-0.6-1.6-1.3-2.3-2.1c0.7,0.1,1.4,0.1,2.2,0.1c0.9,0,1.7-0.1,2.6-0.2
			C23.9,32.1,23.1,32.8,22.2,33.5z M24.2,34.7c-0.1-0.1-0.2-0.1-0.3-0.2c0.1-0.1,0.3-0.1,0.4-0.1c1.3-1.1,2.4-2.4,3.4-3.8
			c3.7-1.1,6.8-3.3,8.9-6.2C34.8,29.8,30,33.9,24.2,34.7z M37.3,18.8c-1.1,4.1-4.1,7.4-8.2,9.3c1.1-2.2,1.7-4.7,1.9-7.4
			c2.3-1.3,4.3-3.2,5.6-5.4C37,16.5,37.2,17.6,37.3,18.8z M35.8,13.2c-1.1,2.1-2.7,4-4.8,5.4c-0.1-2.4-0.6-4.6-1.4-6.7
			c1-1.1,1.7-2.4,2.2-3.8C33.5,9.5,34.8,11.3,35.8,13.2z M30,6.9c-0.2,1.1-0.7,2.1-1.3,3c-1-1.9-2.3-3.6-3.8-5
			C26.7,5.3,28.5,5.9,30,6.9z M22.2,5.3c2.1,1.6,3.8,3.7,5,6.1c-1.4,1.2-3.2,1.9-5.2,1.9c-1.9,0-3.6-0.6-4.9-1.7
			C18.3,9.1,20.1,6.9,22.2,5.3z M19.6,4.9c-1.6,1.5-2.9,3.3-4,5.3c-0.7-0.9-1.2-2-1.5-3.1C15.7,6,17.6,5.3,19.6,4.9z M14.7,12.2
			c-0.8,2-1.2,4.3-1.3,6.6c-2.1-1.3-3.8-3.1-4.9-5.2c0.9-2,2.2-3.8,3.9-5.2C12.9,9.8,13.7,11.1,14.7,12.2z"/>
		<path fill="#333333" d="M33.4,36.1l-0.7,0.4c0,0-0.1,0.1-0.1,0.1c-9.3,5.6-21.3,2.7-27-6.6c-5.7-9.3-2.7-21.4,6.5-27.1l0,0
			l0.7-0.3c0.7-0.3,0.9-1.2,0.6-1.8c-0.3-0.7-1.1-0.9-1.8-0.6l-0.7,0.4c-0.1,0.1-0.3,0.2-0.4,0.3C0.1,7.3-3.1,21,3.3,31.4
			C7.2,37.8,13.9,41.6,20.9,42v4h-3.3c-0.7,0-1.3,0.6-1.3,1.3l-0.9,1.5c0,0.7,0.6,1.3,1.3,1.3h12.9c0.7,0,1.3-0.6,1.3-1.3l-1.6-1.5
			c0-0.7-0.6-1.3-1.3-1.3h-2.3v-4.2c0,0,0,0,0,0c2.8-0.4,5.6-1.4,8.1-3l0,0l0.6-0.3c0.7-0.3,0.9-1.2,0.6-1.8
			C34.9,36,34,35.7,33.4,36.1z"/>
	</g>
</g>
</svg>
