<?xml version="1.0" encoding="utf-8"?>
<!-- Generator: Adobe Illustrator 17.1.0, SVG Export Plug-In . SVG Version: 6.00 Build 0)  -->
<!DOCTYPE svg PUBLIC "-//W3C//DTD SVG 1.1//EN" "http://www.w3.org/Graphics/SVG/1.1/DTD/svg11.dtd">
<svg version="1.1" id="Layer_1" xmlns="http://www.w3.org/2000/svg" xmlns:xlink="http://www.w3.org/1999/xlink" x="0px" y="0px"
	 viewBox="0 0 50 47.7" enable-background="new 0 0 50 47.7" xml:space="preserve">
<g>
	<g>
		<path fill="#333333" d="M33.5,30.7c-2,0.7-4,1-6.2,1c-3.2,0-6.4-0.8-9.1-2.3c-2.2,1.9-5,3-8,3c-1,0-2-0.1-2.9-0.4l2.9,15.7h29.6
			l2.7-14.6c-0.6,0.1-1.2,0.2-1.9,0.2C38,33.3,35.5,32.4,33.5,30.7z M19.2,44.8c0,0-0.1,0-0.1,0c-0.4,0-0.8-0.3-0.9-0.8l-1.1-7.9
			c-0.1-0.5,0.3-1,0.8-1c0.5-0.1,1,0.3,1,0.8l1.1,7.9C20.1,44.3,19.7,44.8,19.2,44.8z M26.7,44c0,0.5-0.4,0.9-0.9,0.9
			s-0.9-0.4-0.9-0.9v-8c0-0.5,0.4-0.9,0.9-0.9s0.9,0.4,0.9,0.9V44z M33.4,44.1c-0.1,0.5-0.5,0.8-0.9,0.8c0,0-0.1,0-0.1,0
			c-0.5-0.1-0.8-0.5-0.8-1l1.1-7.9c0.1-0.5,0.5-0.8,1-0.8c0.5,0.1,0.8,0.5,0.8,1L33.4,44.1z"/>
		<path fill="#333333" d="M6,29.6c0.2,0.1,0.3,0.2,0.5,0.2C6.7,29.9,6.8,30,7,30c1,0.4,2.1,0.6,3.3,0.6c3.1,0,5.8-1.3,7.7-3.5
			c2.7,1.7,5.9,2.8,9.4,2.8c2.3,0,4.6-0.5,6.6-1.3c1.7,1.8,4.1,2.9,6.7,2.9c0.8,0,1.5-0.1,2.2-0.3c0.2,0,0.3-0.1,0.5-0.1
			c0.2-0.1,0.3-0.1,0.5-0.2c3.6-1.3,6.1-4.7,6.1-8.7c0-4.2-2.7-7.7-6.5-8.9C42.6,5.8,35.7,0,27.4,0C20.2,0,14.2,4.3,12,10.2
			c-0.6-0.1-1.1-0.2-1.7-0.2C4.6,10,0,14.6,0,20.3C0,24.4,2.5,28,6,29.6z"/>
	</g>
</g>
</svg>
