<?xml version="1.0" encoding="utf-8"?>
<!-- Generator: Adobe Illustrator 17.1.0, SVG Export Plug-In . SVG Version: 6.00 Build 0)  -->
<!DOCTYPE svg PUBLIC "-//W3C//DTD SVG 1.1//EN" "http://www.w3.org/Graphics/SVG/1.1/DTD/svg11.dtd">
<svg version="1.1" id="Layer_1" xmlns="http://www.w3.org/2000/svg" xmlns:xlink="http://www.w3.org/1999/xlink" x="0px" y="0px"
	 viewBox="0 0 50 50" enable-background="new 0 0 50 50" xml:space="preserve">
<g>
	<path fill="#333333" d="M28.5,22.5l3.2-0.5c0.7-0.1,1.3-0.4,1.8-0.9s0.8-1.1,0.9-1.8c0.2-1.4-0.5-2.7-1.7-3.3l-7.6-3.9l1.3-8.4
		c0.2-1.4-0.5-2.7-1.7-3.3C23.5-0.3,22,0,21,0.9l-6,6L7.4,3.1C6.1,2.5,4.7,2.7,3.7,3.7c-1,1-1.2,2.5-0.6,3.7L7,15l-6,6
		c-1,1-1.2,2.5-0.6,3.7c0.6,1.2,2,1.9,3.3,1.7l8.4-1.3l3.9,7.6c0.6,1.2,2,1.9,3.3,1.7c1.4-0.2,2.4-1.3,2.6-2.6l0.5-3.2L42.8,50
		l7.2-7.2L28.5,22.5z M20,20l-1.5,9.2l-4.2-8.3L5,22.3l6.6-6.6L7.4,7.4l8.3,4.2L22.3,5l-1.5,9.2l8.3,4.2L20,20z"/>
</g>
</svg>
