<?xml version="1.0" encoding="utf-8"?>
<!-- Generator: Adobe Illustrator 17.1.0, SVG Export Plug-In . SVG Version: 6.00 Build 0)  -->
<!DOCTYPE svg PUBLIC "-//W3C//DTD SVG 1.1//EN" "http://www.w3.org/Graphics/SVG/1.1/DTD/svg11.dtd">
<svg version="1.1" id="Layer_1" xmlns="http://www.w3.org/2000/svg" xmlns:xlink="http://www.w3.org/1999/xlink" x="0px" y="0px"
	 viewBox="0 0 20.7 30" enable-background="new 0 0 20.7 30" xml:space="preserve">
<g>
	<g>
		<path fill="#FAA932" d="M10.4,8.1c1.1,0,2.2-0.5,3-1.3c0.8-0.9,1.1-2,1-3.1c-0.1-1.1-0.8-2.1-1.7-2.8C11.7,0.3,10.5,0,9.4,0.3
			c-1.1,0.3-2,1-2.5,2c-0.5,1-0.6,2.2-0.2,3.3c0.4,1,1.2,1.9,2.3,2.3C9.4,8.1,9.9,8.1,10.4,8.1z"/>
		<path fill="#FAA932" d="M20.2,0.2c-0.5-0.4-1.3-0.2-1.6,0.3c0,0-3.7,5.6-4.9,7.1c-0.9,1.1-1.8,1.4-3.2,1.2c-0.7-0.1-9-2.2-9-2.2
			C0.9,6.6,0.3,6.9,0.1,7.5C-0.1,8,0.1,8.6,0.6,8.9c0,0,0.1,0,0.1,0.1l9,3.3c0.1,0.2,0.5,1.3,0.7,2.6c0.2,0.8,0.2,1.6,0.3,2.4
			c0,0.6,0,1.1,0,1.7c0,0.6,0.1,1.2,0.3,1.7c0,0.7-0.1,1.5-0.1,2.2c-0.1,0.8-0.2,1.6-0.3,2.4c-0.2,1-0.4,1.4-0.4,1.4
			c-0.3,0.1-0.7,0.1-1,0c-0.4-0.1-0.8-0.1-1.2-0.3c-0.3-0.1-0.7-0.2-1-0.3c-0.3-0.1-0.5-0.2-0.8-0.3c-0.1-0.1-0.2-0.1-0.4-0.1
			c-0.1,0-0.3,0-0.4,0c-0.3,0-0.5,0.1-0.8,0.3c-0.5,0.3-0.7,0.9-0.5,1.5c0.1,0.4,0.4,0.7,0.7,0.9C6,29,7.2,29.6,8.5,29.8
			C9.2,30,10,30.1,10.7,30c0.7-0.1,1.4-0.4,2-0.9c0.1-0.1,0.2-0.3,0.4-0.4c0,0,0,0,0,0c0,0,0,0,0,0c0.1-0.1,0.1-0.2,0.2-0.3
			c0.1-0.2,0.2-0.3,0.3-0.5c0.2-0.3,0.3-0.7,0.5-1.1c0.3-0.7,0.5-1.5,0.7-2.2c0.1-0.5,0.2-1,0.3-1.5c0.2,0,0.4,0,0.6-0.1
			c0.4,0.7,0.7,1.5,1,2.2c-0.7,0.3-1.1,1.2-0.8,1.9c0.2,0.5,0.5,1,0.8,1.4c0.4,0.4,0.9,0.8,1.5,0.9c0.3,0.1,0.6,0.1,1,0.1
			c0.7-0.1,1.2-0.6,1.3-1.3c0.3-1.5,0-3-0.3-4.4c-0.2-0.8-0.4-1.6-0.7-2.3c-0.2-0.5-0.3-1-0.5-1.5c0-0.1-0.1-0.2-0.1-0.3
			c0-0.3,0.1-0.7,0-1c0-0.3,0-0.7-0.1-1c-0.1-0.8-0.2-1.5-0.3-2.3c-0.3-1.6-0.7-3.2-1.4-4.6c-0.2-0.4-0.4-0.8-0.6-1.2l4.2-7.9
			C20.8,1.2,20.7,0.6,20.2,0.2C19.7-0.2,20.7,0.6,20.2,0.2z"/>
	</g>
</g>
</svg>
