<?xml version="1.0" encoding="utf-8"?>
<!-- Generator: Adobe Illustrator 17.1.0, SVG Export Plug-In . SVG Version: 6.00 Build 0)  -->
<!DOCTYPE svg PUBLIC "-//W3C//DTD SVG 1.1//EN" "http://www.w3.org/Graphics/SVG/1.1/DTD/svg11.dtd">
<svg version="1.1" id="Layer_1" xmlns="http://www.w3.org/2000/svg" xmlns:xlink="http://www.w3.org/1999/xlink" x="0px" y="0px"
	 viewBox="0 0 21.9 30" enable-background="new 0 0 21.9 30" xml:space="preserve">
<g>
	<path fill="#FAA932" d="M10.9,30c0.9,0,1.6-0.7,1.6-1.6v-6.7c5.3-0.8,9.4-5.3,9.4-10.8C21.9,4.9,17,0,10.9,0C4.9,0,0,4.9,0,10.9
		C0,16.5,4.1,21,9.4,21.8v6.7C9.4,29.3,10.1,30,10.9,30z M6.4,12.5c0-2.3,1.6-4.7,4.5-4.7c2.3,0,3.4,2.2,3.4,3.2
		c0,0.4-0.1,1.5-0.7,2.1c-0.8,0.7-2.2-0.1-1.8-1c0.6-1,0.1-2-1.1-2c-1.2,0-1.8,1.1-1.8,2.5c0,1.4,1.3,3.1,2.9,3.2
		c3,0.2,4.7-2.2,4.7-4.6c0-3.4-2.7-5.9-5.9-5.9c-3.8,0-6.2,2.9-6.2,6.5c0,0.8,0.1,1.7,0.3,3c0.2,0.9-0.8,1-1,0.4
		c-0.4-1.1-0.9-2.7-0.9-4c0-4.9,3.3-8.1,7.8-8.1c4.3,0,8.1,3.6,8.1,8.1c0,3-2.2,6.9-6.5,6.9C8.8,18.1,6.4,15.9,6.4,12.5z"/>
</g>
</svg>
