<?xml version="1.0" encoding="utf-8"?>
<!-- Generator: Adobe Illustrator 17.1.0, SVG Export Plug-In . SVG Version: 6.00 Build 0)  -->
<!DOCTYPE svg PUBLIC "-//W3C//DTD SVG 1.1//EN" "http://www.w3.org/Graphics/SVG/1.1/DTD/svg11.dtd">
<svg version="1.1" id="Layer_1" xmlns="http://www.w3.org/2000/svg" xmlns:xlink="http://www.w3.org/1999/xlink" x="0px" y="0px"
	 viewBox="0 0 19.4 30" enable-background="new 0 0 19.4 30" xml:space="preserve">
<g>
	<g id="adb_1_">
		<path fill="#FFFFFF" d="M0,20.3C0,25.7,4.3,30,9.7,30s9.7-4.3,9.7-9.7v-4.6H0V20.3z M15.4,4.2l2.9-2.9l-1.1-1.1L14,3.3
			c-1.3-0.7-2.8-1.1-4.3-1.1s-3.1,0.4-4.3,1L2.2,0L1.1,1.3L4,4.2c-2.5,1.7-4,4.6-4,7.8v1.4h19.4v-1.4C19.4,8.8,17.9,5.8,15.4,4.2z
			 M5.6,10.6c-0.8,0-1.4-0.6-1.4-1.4c0-0.8,0.6-1.4,1.4-1.4s1.4,0.6,1.4,1.4C6.9,10,6.4,10.6,5.6,10.6z M13.9,10.6
			c-0.8,0-1.4-0.6-1.4-1.4c0-0.8,0.6-1.4,1.4-1.4s1.4,0.6,1.4,1.4C15.3,10,14.7,10.6,13.9,10.6z"/>
	</g>
</g>
</svg>
