<?xml version="1.0" encoding="utf-8"?>
<!-- Generator: Adobe Illustrator 17.1.0, SVG Export Plug-In . SVG Version: 6.00 Build 0)  -->
<!DOCTYPE svg PUBLIC "-//W3C//DTD SVG 1.1//EN" "http://www.w3.org/Graphics/SVG/1.1/DTD/svg11.dtd">
<svg version="1.1" id="Layer_1" xmlns="http://www.w3.org/2000/svg" xmlns:xlink="http://www.w3.org/1999/xlink" x="0px" y="0px"
	 viewBox="0 0 34.3 30" enable-background="new 0 0 34.3 30" xml:space="preserve">
<g>
	<path fill="#FAA932" d="M14,20l0.8,2c-0.8,0.3-1.5,0.5-2.3,0.7l-0.4-2.1C12.7,20.5,13.3,20.3,14,20z M7.6,22.6
		c0.8,0.2,1.6,0.3,2.5,0.4l0-2.1c-0.7,0-1.3-0.1-1.9-0.3L7.6,22.6z M24.5,18.9c0.6,0.1,1.2,0.3,1.8,0.6l1-1.9
		c-0.8-0.4-1.5-0.7-2.4-0.8L24.5,18.9z M20,17.1l0.6,2c0.7-0.2,1.3-0.3,1.9-0.4l-0.2-2.1C21.6,16.7,20.8,16.8,20,17.1z M16.6,18.7
		c-0.2,0.2-0.5,0.3-0.7,0.4l1,1.9c0.3-0.1,0.5-0.3,0.8-0.5c0.4-0.2,0.7-0.4,1.1-0.6l-1-1.9C17.4,18.2,17,18.4,16.6,18.7z M22.5,5.4
		c0,0.9-0.2,1.7-0.6,2.4l-4.8,9.4c0,0-4.8-9.4-4.8-9.5C12,7,11.8,6.2,11.8,5.4c0-3,2.4-5.4,5.4-5.4S22.5,2.4,22.5,5.4z M20.4,5.4
		c0-1.8-1.4-3.2-3.2-3.2s-3.2,1.4-3.2,3.2s1.4,3.2,3.2,3.2S20.4,7.1,20.4,5.4z M27.9,10.7h-5l-1.1,2.1h4.6l2.3,6.9l-0.7,0.8
		c0.8,0.7,1.2,1.4,1.2,1.4l0.2-0.1l2,6H3l2.1-6.4c0.1,0.1,0.1,0.1,0.2,0.2l1.1-1.8c-0.3-0.2-0.5-0.3-0.6-0.5L8,12.9h4.6
		c-0.5-0.9-0.8-1.6-1.1-2.1h-5L0,30h34.3L27.9,10.7z"/>
</g>
</svg>
