<?xml version="1.0" encoding="utf-8"?>
<!-- Generator: Adobe Illustrator 17.1.0, SVG Export Plug-In . SVG Version: 6.00 Build 0)  -->
<!DOCTYPE svg PUBLIC "-//W3C//DTD SVG 1.1//EN" "http://www.w3.org/Graphics/SVG/1.1/DTD/svg11.dtd">
<svg version="1.1" id="Layer_1" xmlns="http://www.w3.org/2000/svg" xmlns:xlink="http://www.w3.org/1999/xlink" x="0px" y="0px"
	 viewBox="0 0 24.4 30" enable-background="new 0 0 24.4 30" xml:space="preserve">
<g>
	<path fill="#FFFFFF" d="M20.4,15.9c0-3.8,3.1-5.6,3.2-5.7c-1.8-2.6-4.5-2.9-5.5-3c-2.3-0.2-4.6,1.4-5.7,1.4c-1.2,0-3-1.3-4.9-1.3
		c-2.5,0-4.9,1.5-6.2,3.8c-2.6,4.6-0.7,11.4,1.9,15.1C4.4,28,5.9,30.1,7.9,30c1.9-0.1,2.6-1.2,4.9-1.2c2.3,0,2.9,1.2,5,1.2
		c2,0,3.3-1.9,4.6-3.7c1.4-2.1,2-4.2,2.1-4.3C24.4,22,20.4,20.5,20.4,15.9z M16.6,4.8c1-1.3,1.8-3,1.6-4.8c-1.5,0.1-3.3,1-4.4,2.3
		c-1,1.1-1.8,2.9-1.6,4.6C13.9,7,15.6,6.1,16.6,4.8z"/>
</g>
</svg>
