<?xml version="1.0" encoding="utf-8"?>
<!-- Generator: Adobe Illustrator 17.1.0, SVG Export Plug-In . SVG Version: 6.00 Build 0)  -->
<!DOCTYPE svg PUBLIC "-//W3C//DTD SVG 1.1//EN" "http://www.w3.org/Graphics/SVG/1.1/DTD/svg11.dtd">
<svg version="1.1" id="Layer_1" xmlns="http://www.w3.org/2000/svg" xmlns:xlink="http://www.w3.org/1999/xlink" x="0px" y="0px"
	 viewBox="0 0 121.3 33.3" enable-background="new 0 0 121.3 33.3" xml:space="preserve">
<g>
	<g>
		<path fill="#FFFFFF" d="M46,30.1h-3.7V4.9h7.3c1.5,0,2.8,0.2,3.9,0.6c1.1,0.4,2,0.9,2.8,1.6c0.7,0.7,1.3,1.5,1.6,2.4
			c0.4,0.9,0.5,2,0.5,3.1c0,1.1-0.2,2.2-0.5,3.1c-0.4,0.9-0.9,1.7-1.6,2.4c-0.7,0.7-1.7,1.2-2.8,1.6c-1.1,0.4-2.4,0.6-3.9,0.6H46
			V30.1z M46,16.8h3.6c1,0,1.9-0.1,2.6-0.4c0.7-0.3,1.2-0.6,1.6-1c0.4-0.4,0.7-0.9,0.8-1.4c0.1-0.5,0.2-1,0.2-1.5s-0.1-1-0.2-1.5
			c-0.1-0.5-0.4-1-0.8-1.4c-0.4-0.4-0.9-0.7-1.6-1c-0.7-0.3-1.5-0.4-2.6-0.4H46V16.8z"/>
		<path fill="#FFFFFF" d="M76.2,30.1v-2.9h-0.1c-0.7,1.2-1.6,2-2.7,2.6s-2.4,0.8-3.7,0.8c-1.6,0-3-0.3-4.3-0.8s-2.3-1.3-3.1-2.2
			c-0.9-0.9-1.5-2-1.9-3.1c-0.4-1.2-0.7-2.4-0.7-3.6c0-1.2,0.2-2.3,0.6-3.5c0.4-1.2,1-2.3,1.9-3.2c0.8-1,1.9-1.8,3.1-2.4
			s2.7-0.9,4.4-0.9c1.3,0,2.5,0.3,3.7,0.8c1.1,0.5,2,1.3,2.7,2.4h0.1v-2.7h3.5v18.9H76.2z M76.2,20.7c0-1-0.2-1.9-0.5-2.7
			c-0.3-0.8-0.8-1.5-1.4-2.1c-0.6-0.6-1.3-1-2.1-1.4c-0.8-0.3-1.6-0.5-2.6-0.5c-1.1,0-2,0.2-2.8,0.6c-0.8,0.4-1.5,1-2,1.6
			c-0.5,0.7-0.9,1.4-1.2,2.2c-0.3,0.8-0.4,1.6-0.4,2.3c0,0.9,0.2,1.7,0.5,2.5c0.3,0.8,0.8,1.5,1.3,2.1s1.2,1.1,2,1.5
			s1.7,0.6,2.6,0.6c0.9,0,1.8-0.2,2.6-0.5c0.8-0.4,1.5-0.8,2.1-1.4c0.6-0.6,1.1-1.3,1.4-2.1C76.1,22.4,76.2,21.6,76.2,20.7z"/>
		<path fill="#FFFFFF" d="M88.4,30.1h-3.5V14.4h-2.6v-3.2h2.6V4.9h3.5v6.3h3.1v3.2h-3.1V30.1z"/>
		<path fill="#FFFFFF" d="M97.4,9h-3.5V4.9h3.5V9z M97.4,30.1h-3.5V11.2h3.5V30.1z"/>
		<path fill="#FFFFFF" d="M121.3,20.6c0,1.2-0.2,2.3-0.7,3.5c-0.5,1.2-1.1,2.2-2,3.2c-0.9,1-1.9,1.7-3.2,2.3s-2.7,0.9-4.3,0.9
			c-1.6,0-3-0.3-4.3-0.9c-1.3-0.6-2.3-1.4-3.2-2.3c-0.9-1-1.5-2-2-3.2c-0.5-1.2-0.7-2.4-0.7-3.6c0-1.3,0.3-2.5,0.8-3.7
			c0.5-1.2,1.2-2.2,2.1-3.1c0.9-0.9,2-1.6,3.2-2.2c1.2-0.5,2.6-0.8,4.1-0.8c1.4,0,2.8,0.3,4,0.8c1.2,0.5,2.3,1.2,3.2,2.1
			c0.9,0.9,1.6,1.9,2.2,3.1C121.1,18,121.3,19.2,121.3,20.6z M117.8,20.6c0-0.8-0.2-1.7-0.5-2.5c-0.3-0.8-0.8-1.5-1.3-2.1
			c-0.6-0.6-1.3-1.1-2.1-1.5c-0.8-0.4-1.7-0.6-2.7-0.6c-1,0-1.9,0.2-2.7,0.6c-0.8,0.4-1.5,0.9-2.1,1.5c-0.6,0.6-1,1.3-1.3,2.1
			c-0.3,0.8-0.5,1.6-0.5,2.5c0,0.9,0.2,1.7,0.5,2.5c0.3,0.8,0.8,1.5,1.4,2.1c0.6,0.6,1.3,1.1,2.1,1.5s1.7,0.6,2.7,0.6
			c1,0,1.8-0.2,2.6-0.5c0.8-0.4,1.5-0.9,2.1-1.5c0.6-0.6,1.1-1.3,1.4-2.2C117.6,22.3,117.8,21.5,117.8,20.6z"/>
	</g>
	<g>
		<g>
			<path fill="#FAA932" d="M23.6,22.1c-0.9-0.1-1.8-0.4-2.6-0.8c0,0.2,0,0.5-0.1,0.7c-0.2,0.8-1.4,0.9-2,1.1c-1,0.3-2.1,0.6-3.1,0.9
				v-4c-0.9-0.1-1.8-0.3-2.7-0.7v4.2c-0.8-0.8-1.5-1.5-2.3-2.3c0-0.7,0-1.4,0-2.1c-0.8,0.5-1.6,0.9-2.5,1.1c-0.1,0-0.1,0-0.2,0
				c0,0.5,0,1.1,0,1.6c0,0.6,0.3,1,0.7,1.2c1.4,1.4,2.9,2.8,4.3,4.3v4.9c0,1.7,2.7,1.7,2.7,0v-5.4c0,0,0,0,0,0
				c1.9-0.5,3.9-0.9,5.7-1.7C22.9,24.5,23.4,23.3,23.6,22.1z"/>
			<path fill="#52B848" d="M28.4,1.3c-1-0.6-2.2-0.9-3.3-0.9c-1.6,0-3.3,0.6-4.5,1.8c-1-0.6-2.2-0.9-3.3-0.9c-0.6,0-1.2,0.1-1.7,0.2
				C14.4,0.5,12.9,0,11.4,0c-0.5,0-1.1,0.1-1.6,0.2C6.9,0.9,5,3.5,4.9,6.3c-3.5,0.9-5.6,4.4-4.7,7.9c0.7,3,3.4,4.9,6.3,4.9
				c0.5,0,1.1-0.1,1.6-0.2c0,0,0.1,0,0.1,0c1-0.3,1.9-0.8,2.7-1.5c0.3-0.2,0.5-0.5,0.7-0.8c0.4,0.5,1,0.9,1.5,1.2
				c0.8,0.5,1.7,0.8,2.7,0.9c0.2,0,0.4,0,0.6,0c0.5,0,1.1-0.1,1.6-0.2c0.4-0.1,0.8-0.2,1.1-0.4c0.4,0.7,1,1.3,1.7,1.7
				c0.1,0.1,0.2,0.1,0.3,0.2c0.8,0.4,1.6,0.7,2.4,0.8c0.3,0,0.6,0.1,0.9,0.1c2.2,0,4.4-1.1,5.6-3.2c1.3-2.2,1.2-4.8-0.1-6.8
				c0.2-0.2,0.4-0.5,0.5-0.8C32.5,7.1,31.5,3.1,28.4,1.3z"/>
		</g>
	</g>
</g>
</svg>
