<?xml version="1.0" encoding="utf-8"?>
<!-- Generator: Adobe Illustrator 17.1.0, SVG Export Plug-In . SVG Version: 6.00 Build 0)  -->
<!DOCTYPE svg PUBLIC "-//W3C//DTD SVG 1.1//EN" "http://www.w3.org/Graphics/SVG/1.1/DTD/svg11.dtd">
<svg version="1.1" id="Layer_1" xmlns="http://www.w3.org/2000/svg" xmlns:xlink="http://www.w3.org/1999/xlink" x="0px" y="0px"
	 viewBox="0 0 95.8 26.3" enable-background="new 0 0 95.8 26.3" xml:space="preserve">
<g>
	<g>
		<path fill="#FFFFFF" d="M36.3,23.7h-2.9V3.9h5.7c1.2,0,2.2,0.1,3.1,0.4c0.9,0.3,1.6,0.7,2.2,1.2s1,1.2,1.3,1.9
			C46,8.2,46.1,9,46.1,9.9c0,0.9-0.1,1.7-0.4,2.4s-0.7,1.4-1.3,1.9s-1.3,0.9-2.2,1.2c-0.9,0.3-1.9,0.4-3.1,0.4h-2.8V23.7z
			 M36.3,13.2h2.8c0.8,0,1.5-0.1,2-0.3s0.9-0.5,1.3-0.8c0.3-0.3,0.5-0.7,0.6-1.1c0.1-0.4,0.2-0.8,0.2-1.2c0-0.4-0.1-0.8-0.2-1.2
			c-0.1-0.4-0.3-0.8-0.6-1.1s-0.7-0.6-1.3-0.8s-1.2-0.3-2-0.3h-2.8V13.2z"/>
		<path fill="#FFFFFF" d="M60.1,23.7v-2.3h-0.1c-0.5,0.9-1.3,1.6-2.2,2C57,23.9,56,24.1,55,24.1c-1.3,0-2.4-0.2-3.4-0.7
			c-1-0.4-1.8-1-2.5-1.7c-0.7-0.7-1.2-1.6-1.5-2.5c-0.3-0.9-0.5-1.9-0.5-2.9c0-0.9,0.2-1.8,0.5-2.8s0.8-1.8,1.5-2.5
			c0.7-0.8,1.5-1.4,2.5-1.9c1-0.5,2.1-0.7,3.5-0.7c1,0,2,0.2,2.9,0.6c0.9,0.4,1.6,1,2.1,1.9h0.1V8.9h2.8v14.9H60.1z M60.2,16.3
			c0-0.8-0.1-1.5-0.4-2.2s-0.6-1.2-1.1-1.7s-1-0.8-1.6-1.1c-0.6-0.3-1.3-0.4-2-0.4c-0.9,0-1.6,0.2-2.2,0.5c-0.6,0.3-1.2,0.8-1.6,1.3
			c-0.4,0.5-0.7,1.1-1,1.7c-0.2,0.6-0.3,1.2-0.3,1.8c0,0.7,0.1,1.3,0.4,2s0.6,1.2,1,1.7s1,0.9,1.6,1.2c0.6,0.3,1.3,0.4,2,0.4
			s1.4-0.1,2-0.4c0.6-0.3,1.2-0.7,1.6-1.1c0.5-0.5,0.8-1,1.1-1.7C60.1,17.7,60.2,17,60.2,16.3z"/>
		<path fill="#FFFFFF" d="M69.8,23.7H67V11.4h-2V8.9h2v-5h2.8v5h2.4v2.6h-2.4V23.7z"/>
		<path fill="#FFFFFF" d="M76.9,7.1h-2.8V3.9h2.8V7.1z M76.9,23.7h-2.8V8.9h2.8V23.7z"/>
		<path fill="#FFFFFF" d="M95.8,16.2c0,0.9-0.2,1.8-0.6,2.8c-0.4,0.9-0.9,1.8-1.6,2.5c-0.7,0.8-1.5,1.4-2.5,1.9
			c-1,0.5-2.1,0.7-3.4,0.7s-2.4-0.2-3.4-0.7c-1-0.5-1.8-1.1-2.5-1.8c-0.7-0.8-1.2-1.6-1.6-2.5c-0.4-0.9-0.6-1.9-0.6-2.8
			c0-1,0.2-2,0.6-2.9c0.4-0.9,1-1.8,1.7-2.5c0.7-0.7,1.6-1.3,2.5-1.7s2-0.6,3.2-0.6c1.1,0,2.2,0.2,3.2,0.6c1,0.4,1.8,1,2.6,1.7
			c0.7,0.7,1.3,1.5,1.7,2.5C95.6,14.2,95.8,15.2,95.8,16.2z M93,16.2c0-0.7-0.1-1.3-0.4-1.9c-0.3-0.6-0.6-1.2-1.1-1.7
			c-0.5-0.5-1-0.9-1.7-1.2c-0.6-0.3-1.4-0.4-2.1-0.4s-1.5,0.1-2.1,0.4c-0.6,0.3-1.2,0.7-1.7,1.2c-0.5,0.5-0.8,1.1-1.1,1.7
			s-0.4,1.3-0.4,1.9c0,0.7,0.1,1.3,0.4,2s0.6,1.2,1.1,1.7s1,0.9,1.7,1.2c0.6,0.3,1.3,0.4,2.1,0.4c0.8,0,1.4-0.1,2.1-0.4
			c0.6-0.3,1.2-0.7,1.7-1.2c0.5-0.5,0.8-1.1,1.1-1.7C92.9,17.6,93,16.9,93,16.2z"/>
	</g>
	<g>
		<g>
			<path fill="#FFFFFF" d="M18.6,17.5c-0.7-0.1-1.4-0.3-2-0.6c0,0.2,0,0.4-0.1,0.6c-0.1,0.6-1.1,0.7-1.6,0.9
				c-0.8,0.2-1.6,0.4-2.4,0.7v-3.2c-0.7-0.1-1.4-0.3-2.1-0.6v3.3c-0.6-0.6-1.2-1.2-1.8-1.8c0-0.6,0-1.1,0-1.7
				c-0.6,0.4-1.3,0.7-2,0.9c0,0-0.1,0-0.1,0c0,0.4,0,0.8,0,1.3c0,0.5,0.2,0.8,0.6,0.9c1.1,1.1,2.3,2.2,3.4,3.4v3.9
				c0,1.4,2.1,1.4,2.1,0v-4.2v0c1.5-0.4,3.1-0.7,4.5-1.4C18.1,19.3,18.5,18.4,18.6,17.5z"/>
			<path fill="#FFFFFF" d="M22.4,1c-0.8-0.5-1.7-0.7-2.6-0.7c-1.3,0-2.6,0.5-3.5,1.4C15.4,1.2,14.5,1,13.6,1c-0.5,0-0.9,0.1-1.4,0.2
				C11.4,0.4,10.2,0,9,0C8.6,0,8.2,0.1,7.8,0.2C5.5,0.7,3.9,2.8,3.9,5c-2.7,0.7-4.4,3.5-3.7,6.2c0.6,2.3,2.7,3.9,5,3.9
				c0.4,0,0.8-0.1,1.3-0.2c0,0,0.1,0,0.1,0c0.8-0.2,1.5-0.6,2.1-1.2c0.2-0.2,0.4-0.4,0.6-0.6c0.3,0.4,0.8,0.7,1.2,1
				c0.6,0.4,1.4,0.6,2.1,0.7c0.2,0,0.3,0,0.5,0c0.4,0,0.8-0.1,1.3-0.2c0.3-0.1,0.6-0.2,0.9-0.3c0.4,0.5,0.8,1,1.4,1.4
				c0.1,0.1,0.2,0.1,0.3,0.2c0.6,0.4,1.2,0.6,1.9,0.7c0.2,0,0.5,0.1,0.7,0.1c1.8,0,3.5-0.9,4.4-2.5c1-1.7,0.9-3.8-0.1-5.4
				c0.2-0.2,0.3-0.4,0.4-0.6C25.6,5.6,24.8,2.5,22.4,1z"/>
		</g>
	</g>
</g>
</svg>
