<?xml version="1.0" encoding="utf-8"?>
<!-- Generator: Adobe Illustrator 17.1.0, SVG Export Plug-In . SVG Version: 6.00 Build 0)  -->
<!DOCTYPE svg PUBLIC "-//W3C//DTD SVG 1.1//EN" "http://www.w3.org/Graphics/SVG/1.1/DTD/svg11.dtd">
<svg version="1.1" id="Layer_1" xmlns="http://www.w3.org/2000/svg" xmlns:xlink="http://www.w3.org/1999/xlink" x="0px" y="0px"
	 viewBox="0 0 376.7 361.6" enable-background="new 0 0 376.7 361.6" xml:space="preserve">
<g>
	<g>
		<path fill="#CDCCCC" d="M363.7,200.8c8.6-9.9,12.9-21.6,12.9-35.1c0-12.2-4.5-22.8-13.4-31.8c-8.9-8.9-19.5-13.4-31.8-13.4h-65.2
			c0.6-2.2,1.3-4.1,1.9-5.6c0.6-1.6,1.5-3.3,2.6-5.2c1.1-1.9,1.9-3.3,2.4-4.2c2.8-5.3,5-9.7,6.5-13.2c1.5-3.5,3-8.2,4.5-14.1
			c1.5-6,2.2-11.9,2.2-17.9c0-3.8,0-6.8-0.1-9.2c-0.1-2.4-0.5-5.9-1.2-10.6c-0.7-4.7-1.6-8.6-2.8-11.8c-1.2-3.1-3.1-6.7-5.6-10.6
			c-2.6-3.9-5.7-7.1-9.4-9.5c-3.7-2.4-8.4-4.5-14.1-6.1C247.2,0.8,240.8,0,233.5,0c-4.1,0-7.6,1.5-10.6,4.5c-3.1,3.1-5.8,7.1-8,11.8
			c-2.2,4.7-3.7,8.8-4.6,12.2c-0.9,3.5-1.8,8.2-2.9,14.4c-1.4,6.6-2.5,11.3-3.2,14.2c-0.7,2.9-2.1,6.7-4.1,11.4
			c-2,4.7-4.5,8.5-7.3,11.3c-5.2,5.2-13.1,14.6-23.8,28.2c-7.7,10-15.6,19.5-23.8,28.5c-8.2,8.9-14.1,13.6-17.9,13.9
			c-3.9,0.3-7.3,1.9-10.1,4.8c-2.8,2.9-4.2,6.3-4.2,10.2v150.9c0,4.1,1.5,7.6,4.5,10.5c3,2.9,6.5,4.4,10.6,4.6
			c5.5,0.2,17.9,3.6,37.2,10.4c12.1,4.1,21.5,7.2,28.4,9.3c6.8,2.1,16.4,4.4,28.6,6.8c12.2,2.4,23.5,3.7,33.9,3.7h4H278h8.5
			c20.9-0.3,36.3-6.4,46.4-18.4c9.1-10.8,12.9-25,11.5-42.6c6.1-5.8,10.4-13.2,12.7-22.1c2.7-9.6,2.7-18.8,0-27.5
			c7.2-9.6,10.6-20.3,10.1-32.3C367.2,213.7,366.1,207.7,363.7,200.8z"/>
		<path fill="#CDCCCC" d="M82.9,150.7H15.1c-4.1,0-7.6,1.5-10.6,4.5c-3,3-4.5,6.5-4.5,10.6v150.7c0,4.1,1.5,7.6,4.5,10.6
			c3,3,6.5,4.5,10.6,4.5h67.8c4.1,0,7.6-1.5,10.6-4.5c3-3,4.5-6.5,4.5-10.6V165.7c0-4.1-1.5-7.6-4.5-10.6
			C90.5,152.2,86.9,150.7,82.9,150.7z M55.8,297c-3,2.9-6.5,4.4-10.6,4.4c-4.2,0-7.8-1.5-10.7-4.4c-2.9-2.9-4.4-6.5-4.4-10.7
			c0-4.1,1.5-7.6,4.4-10.6c2.9-3,6.5-4.5,10.7-4.5c4.1,0,7.6,1.5,10.6,4.5c3,3,4.5,6.5,4.5,10.6C60.3,290.5,58.8,294.1,55.8,297z"/>
	</g>
</g>
</svg>
