<?xml version="1.0" encoding="utf-8"?>
<!-- Generator: Adobe Illustrator 17.1.0, SVG Export Plug-In . SVG Version: 6.00 Build 0)  -->
<!DOCTYPE svg PUBLIC "-//W3C//DTD SVG 1.1//EN" "http://www.w3.org/Graphics/SVG/1.1/DTD/svg11.dtd">
<svg version="1.1" id="Layer_1" xmlns="http://www.w3.org/2000/svg" xmlns:xlink="http://www.w3.org/1999/xlink" x="0px" y="0px"
	 viewBox="0 0 296.7 244" enable-background="new 0 0 296.7 244" xml:space="preserve">
<g>
	<g id="_x31__2_">
	</g>
	<g id="_x32__2_">
	</g>
	<g id="Layer_3_2_">
	</g>
	<g id="Layer_4_2_">
	</g>
	<g id="Layer_5_2_">
	</g>
	<g id="Layer_6_2_">
	</g>
	<g id="Layer_7_2_">
	</g>
	<g id="Layer_8_2_">
	</g>
	<g id="Layer_9_2_">
	</g>
	<g id="Layer_10_2_">
	</g>
	<g id="Layer_11_2_">
	</g>
	<g id="Layer_12_2_">
	</g>
	<g id="Layer_13_2_">
	</g>
	<g id="Layer_14_2_">
	</g>
	<g id="Layer_15_2_">
	</g>
	<g id="Layer_16_2_">
	</g>
	<g id="Layer_17_2_">
	</g>
	<g id="Layer_19_2_">
	</g>
	<g id="Layer_20_2_">
	</g>
	<g id="Layer_21_2_">
	</g>
	<g id="Layer_22_2_">
	</g>
	<g id="Layer_23_2_">
	</g>
	<g id="Layer_24_2_">
	</g>
	<g id="Layer_25_2_">
	</g>
	<g id="Layer_26_2_">
	</g>
	<g id="Layer_27_2_">
		<g>
			<polygon fill="#FFFFFF" points="296.7,143.9 296.7,0 72,0 72,72.7 88.4,72.7 88.4,16.4 280.2,16.4 280.2,122.7 190.7,122.7 
				190.7,160.9 250,160.9 250,153.2 203.1,153.2 203.1,143.9 			"/>
			<path fill="#FFFFFF" d="M0,243.4h82.9V119H0V243.4z M43.2,237.2c-2.2,0-4-1.8-4-4c0-2.2,1.8-4,4-4c2.2,0,4,1.8,4,4
				C47.2,235.4,45.4,237.2,43.2,237.2z M12,131h58.9l0,91.8H12V131z"/>
			<polygon fill="#FFFFFF" points="158.9,185.5 158.9,202.1 208,202.1 208,186.6 185.5,185.5 			"/>
			<path fill="#FFFFFF" d="M92.5,244h59.7V143.6H92.5V244z M123.2,239.6c-1.9,0-3.4-1.5-3.4-3.4c0-1.9,1.5-3.4,3.4-3.4
				c1.9,0,3.4,1.5,3.4,3.4C126.6,238.1,125.1,239.6,123.2,239.6z M123.7,146.8c1.3,0,2.4,1.1,2.4,2.4c0,1.3-1.1,2.4-2.4,2.4
				s-2.4-1.1-2.4-2.4C121.3,147.8,122.4,146.8,123.7,146.8z M115.1,153.5h17.2v2.4h-17.2V153.5z M102.1,158.8l40.5,0v69
				c-15.5,0.1-32.9,0.1-40.5,0.1V158.8z"/>
			<polygon fill="#FFFFFF" points="41,89.3 173.8,89.3 173.8,169 158.9,169 158.9,180.7 185.6,180.7 185.6,77.6 29.3,77.6 
				29.3,113.7 41,113.7 			"/>
		</g>
	</g>
	<g id="Layer_28_2_">
	</g>
	<g id="Layer_29_2_">
	</g>
	<g id="Layer_30_2_">
	</g>
	<g id="Layer_31_2_">
	</g>
	<g id="Layer_32_2_">
	</g>
	<g id="Layer_33_2_">
	</g>
	<g id="Layer_34_2_">
	</g>
	<g id="Layer_35_2_">
	</g>
	<g id="Layer_36_2_">
	</g>
	<g id="Layer_37_2_">
	</g>
	<g id="Layer_38_2_">
	</g>
	<g id="Layer_39_2_">
	</g>
	<g id="Layer_40_2_">
	</g>
	<g id="Layer_41_2_">
	</g>
	<g id="Layer_42_2_">
	</g>
	<g id="Layer_43_2_">
	</g>
	<g id="Layer_44_2_">
	</g>
	<g id="Layer_45_2_">
	</g>
	<g id="Layer_46_2_">
	</g>
	<g id="Layer_47_2_">
	</g>
	<g id="Layer_48_2_">
	</g>
	<g id="Layer_49_2_">
	</g>
	<g id="Layer_50_2_">
	</g>
	<g id="Layer_51_2_">
	</g>
	<g id="Layer_52_2_">
	</g>
	<g id="Layer_53_2_">
	</g>
	<g id="Layer_57_2_">
	</g>
	<g id="Layer_54_2_">
	</g>
	<g id="Layer_55_2_">
	</g>
	<g id="Layer_56_2_">
	</g>
	<g id="Layer_59_2_">
	</g>
	<g id="Layer_60_2_">
	</g>
	<g id="Layer_61_2_">
	</g>
	<g id="Layer_62_2_">
	</g>
	<g id="Layer_63_2_">
	</g>
	<g id="Layer_64_2_">
	</g>
	<g id="Layer_65_2_">
	</g>
	<g id="Layer_66_2_">
	</g>
	<g id="Layer_67_2_">
	</g>
	<g id="Layer_68_2_">
	</g>
	<g id="Layer_69_2_">
	</g>
	<g id="Layer_70_2_">
	</g>
	<g id="Layer_71_2_">
	</g>
	<g id="Layer_72_2_">
	</g>
	<g id="Layer_73_2_">
	</g>
	<g id="Layer_74_2_">
	</g>
	<g id="Layer_75_2_">
	</g>
	<g id="Layer_76_2_">
	</g>
	<g id="Layer_77_2_">
	</g>
	<g id="Layer_78_2_">
	</g>
	<g id="Layer_79_2_">
	</g>
	<g id="Layer_80_2_">
	</g>
	<g id="Layer_81_2_">
	</g>
	<g id="Layer_82_2_">
	</g>
	<g id="Layer_83_2_">
	</g>
	<g id="Layer_84_2_">
	</g>
	<g id="Layer_85_2_">
	</g>
	<g id="Layer_86_2_">
	</g>
	<g id="Layer_87_2_">
	</g>
	<g id="Layer_88_2_">
	</g>
	<g id="Layer_89_2_">
	</g>
	<g id="Layer_90_2_">
	</g>
	<g id="Layer_91_2_">
	</g>
	<g id="Layer_92_2_">
	</g>
	<g id="Layer_93_2_">
	</g>
	<g id="Layer_94_2_">
	</g>
	<g id="Layer_95_2_">
	</g>
	<g id="Layer_96_2_">
	</g>
	<g id="Layer_97_2_">
	</g>
	<g id="Layer_98_2_">
	</g>
	<g id="Layer_99_2_">
	</g>
	<g id="Layer_100_2_">
	</g>
	<g id="Layer_101_2_">
	</g>
	<g id="text_2_">
	</g>
</g>
</svg>
